<svg width="50" height="42" viewBox="0 0 50 42" fill="none" xmlns="http://www.w3.org/2000/svg">
<path d="M9.03227 24.2763C4.82492 20.1155 4.78716 13.3318 8.94793 9.12445C13.1087 4.9171 19.8924 4.87934 24.0997 9.0401L31.7178 16.5738L23.879 24.5004C19.8867 28.5374 13.3777 28.5736 9.34076 24.5813L9.03227 24.2763Z" stroke="url(#paint0_linear_1_3326)" stroke-width="2"/>
<path d="M25.5139 9.03227C29.6747 4.82492 36.4584 4.78716 40.6657 8.94793C44.8731 13.1087 44.9109 19.8924 40.7501 24.0997L33.2163 31.7178L25.5983 24.1841C21.3909 20.0233 21.3532 13.2396 25.5139 9.03227Z" stroke="url(#paint1_linear_1_3326)" stroke-width="2"/>
<path d="M32.4289 17.277C36.6363 21.4378 36.674 28.2215 32.5133 32.4288C28.3525 36.6362 21.5688 36.6739 17.3614 32.5132C13.1541 28.3524 13.1163 21.5687 17.2771 17.3614L24.8108 9.74328L32.4289 17.277Z" stroke="url(#paint2_linear_1_3326)" stroke-width="2"/>
<defs>
<linearGradient id="paint0_linear_1_3326" x1="16.6582" y1="33.2242" x2="16.4738" y2="0.092176" gradientUnits="userSpaceOnUse">
<stop stop-color="#02C3BD"/>
<stop offset="1" stop-color="#5899FF"/>
<stop offset="1" stop-color="#50BEBB"/>
</linearGradient>
<linearGradient id="paint1_linear_1_3326" x1="16.566" y1="16.6582" x2="49.698" y2="16.4738" gradientUnits="userSpaceOnUse">
<stop stop-color="#02C3BD"/>
<stop offset="1" stop-color="#5899FF"/>
<stop offset="1" stop-color="#50BEBB"/>
</linearGradient>
<linearGradient id="paint2_linear_1_3326" x1="24.803" y1="8.32909" x2="24.9874" y2="41.4611" gradientUnits="userSpaceOnUse">
<stop stop-color="#02C3BD"/>
<stop offset="1" stop-color="#5899FF"/>
<stop offset="1" stop-color="#50BEBB"/>
</linearGradient>
</defs>
</svg>
